<?xml version="1.0" encoding="UTF-8" standalone="no"?><!DOCTYPE svg PUBLIC "-//W3C//DTD SVG 1.1//EN" "http://www.w3.org/Graphics/SVG/1.1/DTD/svg11.dtd"><svg width="100%" height="100%" viewBox="0 0 129 136" version="1.1" xmlns="http://www.w3.org/2000/svg" xmlns:xlink="http://www.w3.org/1999/xlink" xml:space="preserve" xmlns:serif="http://www.serif.com/" style="fill-rule:evenodd;clip-rule:evenodd;stroke-linejoin:round;stroke-miterlimit:2;"><path d="M42.19,135.123c-8.513,-0.165 -11.76,-10.005 -12.098,-11.123l-29.048,-95.19c-1.71,-5.595 -1.32,-10.095 1.162,-13.373c1.605,-2.122 4.793,-4.62 10.912,-4.508c2.243,0.045 3.99,0.435 4.185,0.48l96.712,22.53c6.217,1.448 10.035,4.38 11.355,8.715c2.092,6.87 -3.735,13.38 -4.403,14.1l-67.665,72.6c-3.63,3.893 -7.373,5.835 -11.107,5.76l-0.007,0.008Zm-29.55,-114.202c-1.732,-0.03 -2.295,0.443 -2.4,0.593c-0.487,0.69 -0.592,0.997 0.435,4.365l29.048,95.19c0.645,2.033 1.725,3.922 2.662,3.998c0.938,0.075 1.17,-0.007 3.548,-2.558l67.665,-72.6c1.252,-1.373 2.4,-3.608 2.138,-4.298c-0.188,-0.487 -0.96,-1.133 -4.005,-1.837l-96.713,-22.53c0,0 -1.215,-0.285 -2.377,-0.308l0,-0.015Z" style="fill:#fff;fill-rule:nonzero;"/><path d="M31.322,127.383c-3.127,1.155 -6.397,1.387 -8.955,0.547c-8.077,-2.632 -8.317,-12.975 -8.317,-14.145l0,-92.677l9.525,2.13l0.037,90.75c0.03,2.13 0.577,4.163 1.875,4.388c1.298,0.225 0.675,0.218 2.61,-0.667l3.232,9.675l-0.007,-0Zm5.79,-14.752l78.248,-45.278c1.59,-0.945 3.45,-2.355 3.292,-3.48c-0.022,-0.165 -0.39,-1.185 -2.092,-2.362l6.563,-7.463c3.705,2.828 5.58,6.12 5.58,9.825c0,7.17 -7.462,11.693 -8.31,12.18l-80.265,46.11l-3.023,-9.54l0.007,0.008Zm70.358,-56.265l-76.905,-44.745c0,-0 -1.92,-1.223 -3.023,-1.583c-1.643,-0.533 -2.452,0.008 -2.602,0.113c-0.458,0.307 -0.607,0.555 -0.803,2.812l-9.908,-1.845c0.54,-4.125 2.145,-7.178 4.8,-9.098c2.145,-1.56 5.925,-3.015 11.73,-1.125c2.123,0.69 3.682,1.583 3.855,1.68l79.995,46.148l-7.155,7.65l0.015,-0.008Z" style="fill:#fff;fill-rule:nonzero;"/></svg>